<?xml version="1.0" encoding="utf-8" ?><svg xmlns="http://www.w3.org/2000/svg" xmlns:xlink="http://www.w3.org/1999/xlink" width="50" height="50" viewBox="0 0 512 512"><path fill="white" d="M85.9757 166.61C96.0954 166.306 106.31 166.583 116.437 166.583L176.034 166.584L212.612 166.586C218.854 166.587 225.409 166.17 231.617 166.713C234.604 166.973 237.031 167.426 239.44 169.366C241.944 171.376 243.517 174.323 243.796 177.522C244.111 180.723 243.118 183.915 241.042 186.371C238.618 189.227 235.501 190.458 231.859 190.762C221.605 191.088 211.261 190.819 200.999 190.819L142.686 190.817L104.591 190.824C98.3198 190.826 91.7905 191.238 85.5559 190.74C82.6212 190.505 80.33 189.973 77.9679 188.135C75.4202 186.18 73.7874 183.264 73.4517 180.07C73.0926 176.782 74.1661 173.259 76.3198 170.739C78.8961 167.724 82.2283 166.979 85.9757 166.61Z"/><path fill="white" d="M20.7127 232.367L117.556 232.364L149.26 232.352C154.687 232.349 160.354 232.016 165.756 232.476C168.247 232.688 170.467 233.237 172.521 234.748C175.083 236.623 176.794 239.439 177.279 242.575C177.764 245.793 176.912 249.068 174.92 251.641C172.501 254.827 169.241 256.049 165.401 256.521C155.055 256.851 144.631 256.603 134.278 256.604L77.1522 256.61L40.0583 256.614C33.6623 256.614 27.0312 257.002 20.6711 256.474C17.652 256.223 15.0306 255.708 12.6228 253.766C10.1039 251.75 8.52121 248.79 8.2436 245.576C7.94076 242.165 9.07037 238.782 11.3617 236.238C13.9153 233.419 17.0733 232.598 20.7127 232.367Z"/><path fill="white" d="M70.8795 44.9802C61.283 44.8698 51.6857 44.8503 42.0889 44.9215C37.5022 44.9273 32.0389 45.4791 27.5575 44.5389C25.2074 44.0458 22.9922 42.7492 21.3193 41.0399C19.0719 38.7435 18.0161 35.7283 18.1177 32.5308C18.2004 29.2651 19.5796 26.1666 21.9507 23.9194C23.7076 22.2747 25.4043 21.5704 27.7258 21.1693C33.611 20.1525 44.025 20.7353 50.3811 20.7348C60.0999 20.7341 70.2803 20.2946 79.9501 20.8413C83.646 21.0503 86.9275 22.2143 89.4562 25.0238C90.6162 26.3126 91.3995 28.457 91.9071 30.1025C92.8676 33.2164 93.5146 36.4841 94.2685 39.6542L98.195 56.1775C101.727 71.0518 105.429 85.8998 108.804 100.809C120.673 101.118 132.583 100.926 144.459 100.927L206.023 100.923L391.961 100.918L464.81 100.919L487.23 100.901C491.491 100.895 495.898 100.66 500.14 101.024C503.374 101.302 506.28 102.097 508.57 104.563C510.149 106.263 510.984 108.222 512 110.265L512 115.723C510.378 119.209 509.746 123.731 508.845 127.487L503.734 148.603L479.855 246.5L473.275 273.518C471.092 282.525 469.565 292.533 465.029 300.677C460.07 309.549 452.066 316.324 442.497 319.749C439.419 320.887 436.202 321.608 432.933 321.894C428.309 322.311 423.63 322.198 418.991 322.193L400.226 322.188L338.936 322.188L186.645 322.191L154.922 322.189C147.749 322.183 136.977 321.381 130.35 323.118C124.303 324.759 119.265 328.94 116.537 334.581C113.767 340.346 113.574 346.798 115.828 352.756C117.874 358.161 122.574 362.775 127.877 365.017C130.624 366.177 133.403 366.576 136.368 366.713C146.393 367.174 156.621 366.749 166.665 366.748L227.077 366.749L411.336 366.756L452.188 366.742C457.156 366.741 467.306 366.183 471.604 367.139C475.395 367.983 478.669 370.378 480.224 373.997C481.498 376.996 481.516 380.38 480.275 383.392C479.027 386.381 476.634 388.746 473.63 389.959C469.83 391.479 456.893 391.034 452.252 390.758C466.088 397.669 476.246 407.29 481.297 422.243C485.702 435.317 484.747 449.603 478.641 461.975C472.331 474.683 461.182 484.324 447.697 488.735C434.892 492.976 420.383 491.633 408.386 485.586C395.974 479.357 386.55 468.446 382.193 455.259C377.899 442.038 379.009 427.655 385.283 415.249C391.218 403.614 399.431 396.691 410.965 391.018C404.701 390.722 398.376 390.892 392.103 390.895L360.909 390.899L242.362 390.904L202.076 390.895C195.371 390.881 188.553 391.096 181.859 390.791C195.835 398.033 206.005 407.69 210.935 423.005C215.14 436.185 213.942 450.496 207.604 462.794C201.114 475.332 189.879 484.754 176.403 488.962C163.507 493.03 148.814 491.463 136.906 485.156C124.572 478.636 115.335 467.481 111.23 454.148C107.204 440.742 108.682 426.285 115.338 413.971C121.236 403.179 129.378 396.286 140.364 391.077C137.23 390.872 134.007 390.899 130.897 390.481C119.514 389.043 109.063 383.448 101.553 374.773C93.5154 365.55 89.4939 353.5 90.3819 341.298C91.2252 328.845 97.048 317.255 106.536 309.145C112.929 303.661 120.722 300.064 129.043 298.759C137.406 297.401 147.477 298.097 156.058 298.099L203.13 298.105L372.041 298.101L411.107 298.106C417.174 298.113 425.747 298.687 431.482 297.765C435.458 297.136 439.095 295.154 441.778 292.154C443.618 290.091 444.815 287.74 445.621 285.108C448.298 276.368 450.095 267.151 452.261 258.261L464.875 206.506L478.093 152.275L482.402 134.578C483.173 131.407 484.083 128.206 484.685 125.002L168.112 125.018L63.2873 125.014L29.8302 125.031C23.9208 125.037 17.8512 125.323 11.9575 124.972C8.96009 124.793 6.05766 123.936 3.8488 121.81C1.98037 120.011 1.35401 117.993 0 115.918L0 110.042C2.11367 106.4 3.44631 102.849 8.00555 101.655C12.411 100.502 17.3888 100.9 21.9063 100.899L37.6547 100.904C53.1489 100.915 68.6665 100.752 84.1575 100.967C82.0425 94.0367 80.6885 86.4692 79.005 79.3857C76.2836 67.9346 73.3301 56.4903 70.8795 44.9802ZM165.124 466.851C180.533 464.679 191.263 450.426 189.089 435.017C186.915 419.607 172.661 408.879 157.252 411.054C141.845 413.229 131.118 427.481 133.292 442.888C135.465 458.295 149.717 469.024 165.124 466.851ZM435.874 466.829C451.254 464.581 461.907 450.302 459.682 434.918C457.457 419.535 443.194 408.86 427.807 411.062C412.388 413.268 401.685 427.569 403.915 442.985C406.145 458.401 420.461 469.082 435.874 466.829Z"/></svg>